<?xml version="1.0" encoding="utf-8"?>
<!-- Generator: Adobe Illustrator 22.1.0, SVG Export Plug-In . SVG Version: 6.00 Build 0)  -->
<svg version="1.1" id="Layer_1" xmlns="http://www.w3.org/2000/svg" xmlns:xlink="http://www.w3.org/1999/xlink" x="0px" y="0px"
	 viewBox="0 0 256 256" style="enable-background:new 0 0 256 256;" xml:space="preserve">
<style type="text/css">
	.st0{fill:#6BDDDD;}
	.st1{fill:#3762CC;}
	.st2{fill:#F9A7A7;}
	.st3{fill:#FFEA92;}
	.st4{fill:#A4C9FF;}
	.st5{fill:#4671C6;}
	.st6{fill:#E0EBFC;}
	.st7{fill:#F9CFCF;}
	.st8{fill:#EAA97D;}
	.st9{fill:#B9BEFC;}
	.st10{fill:#FFEA94;}
</style>
<g>
	<g>
		<path class="st5" d="M113.574,55.521h24.628l12.327-21.352C136.061,37.379,123.248,44.981,113.574,55.521z"/>
	</g>
	<g>
		<path class="st5" d="M98.11,124.951l12.32-21.338L98.11,82.274c-2.115,6.737-3.26,13.904-3.26,21.339
			S95.995,118.214,98.11,124.951z"/>
	</g>
	<g>
		<path class="st5" d="M138.202,151.704h-24.627c9.674,10.541,22.486,18.142,36.955,21.352L138.202,151.704z"/>
	</g>
	<g>
		<path class="st5" d="M181.392,173.073c14.501-3.199,27.342-10.81,37.034-21.37H193.73L181.392,173.073z"/>
	</g>
	<g>
		<path class="st5" d="M233.869,82.212l-12.356,21.401l12.356,21.401c2.128-6.755,3.281-13.943,3.281-21.401
			C237.15,96.154,235.997,88.966,233.869,82.212z"/>
	</g>
	<g>
		<path class="st5" d="M193.73,55.521h24.696c-9.692-10.56-22.533-18.17-37.034-21.37L193.73,55.521z"/>
	</g>
	<g>
		<polygon class="st5" points="179.883,79.566 152.117,79.566 138.234,103.612 152.117,127.658 179.883,127.658 193.766,103.612 		
			"/>
	</g>
	<g>
		<path class="st1" d="M138.201,57.521h-24.627c-0.793,0-1.512-0.469-1.831-1.195s-0.179-1.572,0.357-2.157
			c10.195-11.108,23.334-18.699,37.994-21.951c0.778-0.172,1.578,0.131,2.046,0.77c0.47,0.64,0.517,1.496,0.12,2.183l-12.327,21.352
			C139.576,57.14,138.916,57.521,138.201,57.521z M118.337,53.521h18.71l9.369-16.229C135.882,40.387,126.311,45.918,118.337,53.521
			z"/>
	</g>
	<g>
		<path class="st1" d="M98.111,126.951c-0.073,0-0.146-0.004-0.22-0.012c-0.789-0.087-1.451-0.632-1.689-1.389
			c-2.224-7.081-3.352-14.462-3.352-21.938s1.128-14.857,3.352-21.938c0.238-0.757,0.9-1.302,1.689-1.389
			c0.78-0.082,1.554,0.301,1.951,0.988l12.319,21.339c0.356,0.619,0.356,1.381,0,2l-12.319,21.339
			C99.482,126.574,98.819,126.951,98.111,126.951z M98.764,87.405c-1.271,5.286-1.913,10.719-1.913,16.207
			s0.643,10.921,1.913,16.207l9.356-16.207L98.764,87.405z"/>
	</g>
	<g>
		<path class="st1" d="M150.528,175.056c-0.144,0-0.289-0.016-0.434-0.048c-14.66-3.252-27.799-10.843-37.994-21.951
			c-0.536-0.585-0.677-1.431-0.357-2.157s1.038-1.195,1.831-1.195h24.627c0.715,0,1.375,0.381,1.732,1l12.327,21.352
			c0.396,0.687,0.35,1.543-0.12,2.183C151.76,174.759,151.157,175.056,150.528,175.056z M118.337,153.704
			c7.974,7.603,17.545,13.134,28.079,16.229l-9.369-16.229H118.337z"/>
	</g>
	<g>
		<path class="st1" d="M181.392,175.073c-0.629,0-1.231-0.297-1.613-0.818c-0.469-0.64-0.515-1.495-0.119-2.182l12.338-21.369
			c0.357-0.619,1.018-1,1.732-1h24.696c0.793,0,1.512,0.469,1.831,1.195s0.179,1.572-0.357,2.157
			c-10.216,11.131-23.383,18.728-38.077,21.97C181.679,175.058,181.534,175.073,181.392,175.073z M194.884,153.704l-9.384,16.254
			c10.568-3.09,20.168-8.63,28.164-16.254H194.884z"/>
	</g>
	<g>
		<path class="st1" d="M233.868,127.014c-0.708,0-1.371-0.377-1.731-1l-12.356-21.401c-0.356-0.619-0.356-1.381,0-2l12.356-21.4
			c0.397-0.688,1.171-1.071,1.95-0.988c0.789,0.087,1.451,0.631,1.689,1.388c2.238,7.104,3.373,14.506,3.373,22.001
			c0,7.494-1.135,14.897-3.373,22.002c-0.238,0.757-0.9,1.301-1.689,1.388C234.014,127.01,233.941,127.014,233.868,127.014z
			 M223.822,103.612l9.396,16.275c1.282-5.311,1.931-10.767,1.931-16.275s-0.648-10.965-1.931-16.274L223.822,103.612z"/>
	</g>
	<g>
		<path class="st1" d="M218.426,57.521h-24.696c-0.715,0-1.375-0.381-1.732-1l-12.338-21.369c-0.396-0.687-0.35-1.542,0.119-2.182
			c0.468-0.64,1.269-0.939,2.044-0.771c14.694,3.242,27.861,10.839,38.077,21.97c0.536,0.585,0.677,1.431,0.357,2.157
			S219.219,57.521,218.426,57.521z M194.884,53.521h18.78c-7.996-7.624-17.596-13.164-28.164-16.254L194.884,53.521z"/>
	</g>
	<g>
		<path class="st1" d="M179.883,129.658h-27.766c-0.715,0-1.375-0.381-1.732-1l-13.883-24.046c-0.356-0.619-0.356-1.381,0-2
			l13.883-24.046c0.357-0.619,1.018-1,1.732-1h27.766c0.715,0,1.375,0.381,1.732,1l13.883,24.046c0.356,0.619,0.356,1.381,0,2
			l-13.883,24.046C181.258,129.277,180.598,129.658,179.883,129.658z M153.271,125.658h25.457l12.728-22.046l-12.728-22.046h-25.457
			l-12.728,22.046L153.271,125.658z"/>
	</g>
	<g>
		<path class="st1" d="M166,176.762c-40.335,0-73.149-32.814-73.149-73.149S125.665,30.463,166,30.463s73.149,32.814,73.149,73.149
			S206.335,176.762,166,176.762z M166,34.463c-38.129,0-69.149,31.021-69.149,69.149s31.021,69.149,69.149,69.149
			s69.149-31.021,69.149-69.149S204.129,34.463,166,34.463z"/>
	</g>
	<g>
		<path class="st6" d="M113.574,55.521c-6.962,7.585-12.301,16.683-15.462,26.747l12.323,21.345h27.766l13.883-24.046
			l-13.883-24.046H113.574z"/>
	</g>
	<g>
		<path class="st6" d="M110.436,103.612l-12.323,21.345c3.161,10.064,8.5,19.162,15.462,26.747h24.627l13.883-24.046l-13.883-24.045
			H110.436z"/>
	</g>
	<g>
		<path class="st6" d="M152.117,127.658l-13.883,24.046l12.332,21.36c4.971,1.1,10.131,1.698,15.434,1.698
			s10.462-0.598,15.434-1.698l12.332-21.36l-13.883-24.046H152.117z"/>
	</g>
	<g>
		<path class="st6" d="M233.862,125.032l-12.367-21.42H193.73l-13.883,24.045l13.883,24.046h24.696
			C225.37,144.138,230.698,135.067,233.862,125.032z"/>
	</g>
	<g>
		<path class="st6" d="M233.862,82.192c-3.164-10.034-8.492-19.105-15.436-26.671H193.73l-13.883,24.046l13.883,24.046h27.766
			L233.862,82.192z"/>
	</g>
	<g>
		<path class="st6" d="M150.566,34.161l-12.332,21.36l13.883,24.046h27.766l13.883-24.046l-12.332-21.36
			c-4.971-1.1-10.131-1.698-15.434-1.698S155.538,33.061,150.566,34.161z"/>
	</g>
	<g>
		<path class="st1" d="M138.201,105.612h-27.766c-0.715,0-1.375-0.381-1.732-1L96.38,83.268c-0.279-0.485-0.344-1.065-0.176-1.6
			c3.18-10.123,8.677-19.633,15.896-27.5c0.379-0.412,0.913-0.647,1.474-0.647h24.627c0.715,0,1.375,0.381,1.732,1l13.883,24.046
			c0.356,0.619,0.356,1.381,0,2l-13.883,24.046C139.576,105.231,138.916,105.612,138.201,105.612z M111.59,101.612h25.457
			l12.728-22.046l-12.728-22.046h-22.586c-6.342,7.091-11.223,15.533-14.174,24.515L111.59,101.612z"/>
	</g>
	<g>
		<path class="st1" d="M138.201,153.704h-24.627c-0.561,0-1.095-0.235-1.474-0.647c-7.219-7.865-12.716-17.375-15.896-27.5
			c-0.168-0.534-0.104-1.114,0.176-1.6l12.323-21.345c0.357-0.619,1.018-1,1.732-1h27.766c0.715,0,1.375,0.381,1.732,1
			l13.883,24.046c0.356,0.619,0.356,1.381,0,2l-13.883,24.046C139.576,153.323,138.916,153.704,138.201,153.704z M114.461,149.704
			h22.586l12.728-22.046l-12.728-22.046H111.59l-11.303,19.577C103.238,134.173,108.119,142.614,114.461,149.704z"/>
	</g>
	<g>
		<path class="st1" d="M166,176.762c-5.294,0-10.632-0.587-15.865-1.744c-0.548-0.121-1.02-0.467-1.301-0.953l-12.332-21.36
			c-0.356-0.619-0.356-1.381,0-2l13.883-24.046c0.357-0.619,1.018-1,1.732-1h27.766c0.715,0,1.375,0.381,1.732,1l13.883,24.046
			c0.356,0.619,0.356,1.381,0,2l-12.332,21.36c-0.281,0.486-0.753,0.832-1.301,0.953C176.632,176.175,171.294,176.762,166,176.762z
			 M151.854,171.296c9.352,1.945,18.939,1.945,28.291,0l11.311-19.592l-12.728-22.046h-25.457l-12.728,22.046L151.854,171.296z"/>
	</g>
	<g>
		<path class="st1" d="M218.426,153.704h-24.696c-0.715,0-1.375-0.381-1.732-1l-13.883-24.046c-0.356-0.619-0.356-1.381,0-2
			l13.883-24.046c0.357-0.619,1.018-1,1.732-1h27.766c0.715,0,1.375,0.381,1.732,1l12.367,21.42c0.28,0.485,0.344,1.066,0.175,1.602
			c-3.184,10.097-8.672,19.579-15.87,27.423C219.521,153.469,218.986,153.704,218.426,153.704z M194.884,149.704h22.655
			c6.322-7.068,11.194-15.485,14.147-24.44l-11.346-19.651h-25.457l-12.728,22.046L194.884,149.704z"/>
	</g>
	<g>
		<path class="st1" d="M221.495,105.612h-27.766c-0.715,0-1.375-0.381-1.732-1l-13.883-24.046c-0.356-0.619-0.356-1.381,0-2
			l13.883-24.046c0.357-0.619,1.018-1,1.732-1h24.696c0.561,0,1.095,0.235,1.474,0.647c7.198,7.844,12.687,17.326,15.87,27.423
			c0.169,0.535,0.105,1.116-0.175,1.602l-12.367,21.42C222.87,105.231,222.21,105.612,221.495,105.612z M194.884,101.612h25.457
			l11.346-19.651c-2.953-8.955-7.825-17.372-14.147-24.44h-22.655l-12.728,22.046L194.884,101.612z"/>
	</g>
	<g>
		<path class="st1" d="M179.883,81.566h-27.766c-0.715,0-1.375-0.381-1.732-1l-13.883-24.046c-0.356-0.619-0.356-1.381,0-2
			l12.332-21.359c0.281-0.485,0.753-0.831,1.3-0.953c10.465-2.316,21.268-2.316,31.732,0c0.547,0.122,1.019,0.468,1.3,0.953
			l12.332,21.359c0.356,0.619,0.356,1.381,0,2l-13.883,24.046C181.258,81.186,180.598,81.566,179.883,81.566z M153.271,77.566
			h25.457l12.728-22.046L180.146,35.93c-9.348-1.947-18.943-1.947-28.291,0l-11.311,19.591L153.271,77.566z"/>
	</g>
	<g>
		<path class="st5" d="M247.96,173.835l0.001,0.654c0.005,5.745-4.649,10.398-10.394,10.394l-66.379-0.053
			c-1.352-0.001-2.448-1.098-2.449-2.449l-0.013-16.563c-0.001-1.352,1.094-2.447,2.446-2.446l66.379,0.053
			C243.294,163.429,247.955,168.09,247.96,173.835z"/>
	</g>
	<g>
		<path class="st6" d="M113.898,170.445c-0.625-0.455-1.381-0.727-2.201-0.728l-16.046-0.013l-0.012-14.723l12.41,0.01
			c-2.019-2.923-4.495-5.61-7.347-8.003l-5.069-0.004l-0.003-3.687c-2.484-1.564-5.161-2.935-8.001-4.081l0.006,7.761l-16.38-0.013
			l-0.009-11.588c-1.556-0.126-3.133-0.194-4.729-0.195c-1.1-0.001-2.187,0.04-3.268,0.099l0.009,11.678l-16.38-0.013l-0.007-8.322
			c-2.824,1.04-5.498,2.297-7.994,3.747l0.004,4.57l-6.53-0.005c-2.849,2.388-5.32,5.072-7.335,7.992l13.871,0.011l0.012,14.722
			l-19.635-0.016c-0.167,1.315-0.255,2.648-0.253,3.999c0.001,1.35,0.09,2.684,0.26,3.999l19.635,0.016l0.012,14.723l-13.871-0.011
			c2.019,2.923,4.495,5.61,7.347,8.003l6.53,0.005l0.004,4.57c2.498,1.453,5.175,2.714,8,3.759l-0.007-8.323l16.38,0.013
			l0.009,11.678c1.081,0.061,2.169,0.103,3.269,0.104c1.596,0.001,3.173-0.064,4.729-0.188l-0.009-11.587l16.38,0.013l0.006,7.762
			c2.838-1.142,5.512-2.509,7.994-4.069l-0.003-3.686l5.069,0.004c2.849-2.389,5.32-5.072,7.335-7.992l-12.41-0.01l-0.012-14.723
			l16.046,0.013c0.82,0.001,1.576-0.27,2.2-0.724c0.112-1.08,0.182-2.169,0.181-3.272
			C114.084,172.614,114.012,171.525,113.898,170.445z M46.884,154.943l16.38,0.013l0.012,14.723l-16.38-0.013L46.884,154.943z
			 M46.914,192.385l-0.012-14.723l16.38,0.013l0.012,14.723L46.914,192.385z M71.262,154.962l16.38,0.013l0.012,14.723l-16.38-0.013
			L71.262,154.962z M71.291,192.405l-0.012-14.723l16.38,0.013l0.012,14.723L71.291,192.405z"/>
	</g>
	<g>
		<path class="st8" d="M168.726,166.414l-24.173-0.019c-0.173-0.276-0.426-0.501-0.744-0.625l-22.073-8.574
			c-8.019-19.416-29.716-33.354-55.228-33.374c-32.313-0.026-58.489,22.275-58.467,49.811c0.022,27.536,26.234,49.878,58.547,49.904
			c25.512,0.02,47.187-13.883,55.175-33.286l0,0l22.056-8.538c0.387-0.15,0.674-0.452,0.838-0.816l24.082,0.019L168.726,166.414z
			 M66.578,212.177c-26.213-0.021-47.552-17.308-47.568-38.535c-0.017-21.228,21.294-38.481,47.507-38.46
			c26.212,0.021,47.551,17.308,47.568,38.536C114.101,194.945,92.79,212.198,66.578,212.177z M133.808,178.358l-9.455,3.119
			c0.461-2.526,0.703-5.114,0.701-7.751c-0.002-2.641-0.25-5.234-0.716-7.764c0.001,0.004,0.002,0.008,0.003,0.012l9.464,3.136
			c0.632,0.21,1.059,0.8,1.06,1.466l0.003,3.158l0.002,3.154C134.871,177.556,134.442,178.149,133.808,178.358z"/>
	</g>
	<g>
		<path class="st1" d="M237.575,186.882c-0.003,0-0.007,0-0.011,0l-66.379-0.053c-2.45-0.002-4.445-1.997-4.447-4.448l-0.014-16.562
			c-0.001-1.188,0.461-2.306,1.301-3.146s1.956-1.302,3.144-1.302c0.001,0,0.002,0,0.003,0l66.38,0.053
			c6.836,0.005,12.402,5.571,12.408,12.408c0,0.001,0,0.001,0,0.002v0.653c0.003,3.312-1.285,6.426-3.626,8.768
			C243.995,185.594,240.885,186.882,237.575,186.882z M171.169,165.372c-0.152,0-0.255,0.07-0.314,0.13s-0.13,0.162-0.13,0.314
			l0.014,16.562c0,0.249,0.202,0.451,0.45,0.451l66.38,0.053c0.002,0,0.005,0,0.007,0c2.241,0,4.347-0.871,5.93-2.455
			c1.585-1.585,2.457-3.693,2.455-5.937v-0.653c-0.004-4.636-3.777-8.409-8.411-8.412L171.169,165.372L171.169,165.372z"/>
	</g>
	<g>
		<path class="st1" d="M66.642,225.537c-0.021,0-0.037,0-0.058,0c-33.361-0.026-60.521-23.31-60.544-51.901
			c-0.01-12.377,5.146-24.354,14.516-33.726c11.497-11.496,28.224-18.088,45.896-18.088c0.02,0,0.037,0,0.057,0
			c25.268,0.02,47.942,13.573,56.738,33.815l21.286,8.269c0.313,0.122,0.605,0.287,0.868,0.49l23.326,0.018
			c1.103,0.001,1.997,0.896,1.998,1.998l0.012,14.503c0,0.531-0.21,1.041-0.586,1.416c-0.375,0.375-0.884,0.586-1.414,0.586
			c-0.001,0-0.001,0-0.002,0l-23.104-0.018c-0.316,0.29-0.684,0.521-1.09,0.679l-21.268,8.233
			C114.516,212.023,91.885,225.536,66.642,225.537z M66.452,125.822c-16.621,0-32.315,6.164-43.067,16.917
			c-8.615,8.614-13.354,19.586-13.345,30.893c0.021,26.391,25.388,47.881,56.548,47.905c0.018,0,0.036,0,0.054,0
			c23.975,0,45.377-12.873,53.271-32.047c0.209-0.507,0.616-0.905,1.128-1.104l21.871-8.467c0.352-0.627,1.017-1.021,1.744-1.021
			c0.001,0,0.001,0,0.002,0l22.078,0.017l-0.008-10.503l-22.178-0.017c-0.639,0-1.236-0.307-1.61-0.817l-21.929-8.518
			c-0.509-0.198-0.915-0.596-1.124-1.101c-7.931-19.204-29.384-32.119-53.382-32.138C66.488,125.822,66.47,125.822,66.452,125.822z
			 M66.625,214.178c-0.017,0-0.032,0-0.049,0l0,0c-27.313-0.022-49.549-18.206-49.566-40.533
			c-0.007-9.311,3.952-18.402,11.149-25.599c9.447-9.448,23.409-14.864,38.311-14.864c0.017,0,0.032,0,0.049,0
			c27.313,0.022,49.548,18.206,49.565,40.534c0.008,9.31-3.951,18.4-11.147,25.597C95.489,208.761,81.526,214.178,66.625,214.178z
			 M66.58,210.178c0.014,0,0.03,0,0.045,0c13.85,0,26.779-4.989,35.483-13.693c6.533-6.533,9.982-14.405,9.976-22.765
			c-0.016-20.127-20.458-36.518-45.569-36.538c-0.014,0-0.03,0-0.045,0c-13.85,0-26.779,4.989-35.482,13.692
			c-6.534,6.534-9.984,14.406-9.978,22.767C21.025,193.767,41.468,210.157,66.58,210.178L66.58,210.178z M124.354,183.478
			c-0.476,0-0.943-0.17-1.313-0.491c-0.532-0.464-0.78-1.174-0.654-1.868c0.445-2.441,0.671-4.928,0.669-7.39
			c-0.002-2.464-0.231-4.955-0.684-7.403c-0.196-1.063,0.487-2.089,1.543-2.317c0.433-0.095,0.865-0.04,1.242,0.129l9.278,3.074
			c1.452,0.482,2.429,1.834,2.431,3.362l0.005,6.313c0.002,1.535-0.977,2.89-2.436,3.371l-9.454,3.119
			C124.775,183.444,124.563,183.478,124.354,183.478z M126.788,168.892c0.176,1.61,0.266,3.227,0.267,4.833
			c0.001,1.61-0.086,3.229-0.26,4.842l6.075-2.004l-0.005-5.658L126.788,168.892z M133.183,176.459
			c-0.002,0-0.003,0.001-0.004,0.001L133.183,176.459L133.183,176.459z"/>
	</g>
	<g>
		<path class="st1" d="M66.612,214.178c-1.031,0.025-2.105-0.034-3.415-0.107c-1.059-0.06-1.887-0.935-1.888-1.995l-0.007-9.682
			l-12.381-0.009l0.005,6.318c0.001,0.655-0.319,1.269-0.856,1.643s-1.225,0.461-1.837,0.235c-2.911-1.076-5.707-2.391-8.313-3.906
			c-0.615-0.357-0.993-1.016-0.994-1.727l-0.002-2.573l-4.534-0.004c-0.47,0-0.924-0.166-1.283-0.468
			c-3.009-2.523-5.603-5.35-7.708-8.398c-0.423-0.612-0.471-1.408-0.125-2.066s1.027-1.07,1.771-1.07c0.001,0,0.001,0,0.002,0
			l11.867,0.009l-0.008-10.723l-17.639-0.014c-1.005-0.001-1.853-0.747-1.981-1.743c-0.183-1.41-0.275-2.842-0.276-4.254
			c-0.001-1.409,0.09-2.84,0.269-4.252c0.127-0.999,0.978-1.748,1.984-1.748c0.001,0,0.001,0,0.002,0l17.632,0.014l-0.008-10.723
			l-11.876-0.009c-0.742-0.001-1.424-0.413-1.77-1.071c-0.345-0.658-0.297-1.453,0.125-2.064c2.103-3.048,4.692-5.87,7.696-8.389
			c0.36-0.303,0.815-0.468,1.285-0.468c0.001,0,0.001,0,0.002,0l4.527,0.004l-0.002-2.567c0-0.713,0.379-1.372,0.996-1.73
			c2.606-1.514,5.401-2.823,8.307-3.894c0.614-0.225,1.3-0.138,1.835,0.236c0.536,0.373,0.855,0.985,0.856,1.639l0.005,6.326
			l12.38,0.01l-0.007-9.674c-0.001-1.063,0.829-1.94,1.89-1.999c1.271-0.07,2.345-0.103,3.378-0.103
			c1.615,0.002,3.261,0.07,4.891,0.202c1.038,0.084,1.838,0.95,1.839,1.991l0.007,9.592l12.381,0.009l-0.005-5.757
			c-0.001-0.665,0.329-1.287,0.881-1.659c0.551-0.372,1.25-0.446,1.868-0.197c2.92,1.179,5.719,2.606,8.317,4.243
			c0.581,0.366,0.934,1.004,0.935,1.69l0.001,1.69l3.073,0.002c0.469,0,0.924,0.166,1.283,0.468
			c3.008,2.522,5.601,5.348,7.707,8.398c0.423,0.612,0.471,1.408,0.125,2.066s-1.027,1.07-1.771,1.07c-0.001,0-0.001,0-0.002,0
			l-10.406-0.008l0.008,10.723l14.051,0.011c1.214,0.001,2.382,0.387,3.378,1.113c0.457,0.333,0.751,0.844,0.811,1.406
			c0.132,1.261,0.196,2.399,0.196,3.481c0.001,1.093-0.062,2.231-0.191,3.479c-0.059,0.563-0.354,1.076-0.813,1.41
			c-0.995,0.724-2.161,1.106-3.372,1.106c-0.003,0-0.005,0-0.007,0l-14.042-0.011l0.008,10.723l10.414,0.008
			c0.742,0.001,1.424,0.413,1.77,1.071c0.345,0.658,0.297,1.453-0.125,2.064c-2.104,3.05-4.693,5.872-7.696,8.39
			c-0.36,0.302-0.815,0.467-1.285,0.467c-0.001,0-0.001,0-0.002,0l-3.065-0.002l0.002,1.683c0.001,0.688-0.353,1.329-0.937,1.695
			c-2.599,1.633-5.396,3.057-8.311,4.23c-0.616,0.247-1.313,0.173-1.866-0.197c-0.55-0.372-0.88-0.992-0.881-1.656l-0.005-5.766
			l-12.38-0.009l0.007,9.583c0.001,1.044-0.801,1.913-1.841,1.996C69.844,214.112,68.211,214.178,66.612,214.178z M65.309,210.158
			c0.456,0.013,0.9,0.007,1.305,0.02c0.889,0,1.789-0.021,2.692-0.064l-0.008-9.709c0-0.531,0.21-1.041,0.586-1.416
			c0.375-0.375,0.884-0.586,1.414-0.586c0.001,0,0.001,0,0.002,0l16.38,0.013c1.103,0.001,1.997,0.895,1.998,1.998l0.004,4.706
			c1.374-0.652,2.709-1.364,3.996-2.131l-0.003-2.564c-0.001-0.531,0.21-1.04,0.586-1.416c0.375-0.375,0.884-0.586,1.414-0.586
			c0.001,0,0.001,0,0.002,0l4.331,0.003c1.449-1.258,2.785-2.593,3.998-3.994l-8.339-0.007c-1.103-0.001-1.997-0.896-1.998-1.998
			l-0.012-14.723c0-0.531,0.21-1.041,0.586-1.416c0.375-0.375,0.884-0.586,1.414-0.586c0.001,0,0.001,0,0.002,0l16.046,0.013
			c0,0,0.001,0,0.002,0c0.107,0,0.209-0.011,0.304-0.028c0.05-0.688,0.074-1.337,0.073-1.966c0-0.626-0.025-1.277-0.076-1.973
			c-0.098-0.02-0.202-0.03-0.313-0.03l-16.047-0.013c-1.103-0.001-1.997-0.896-1.998-1.998l-0.012-14.723
			c0-0.531,0.21-1.041,0.586-1.416c0.375-0.375,0.884-0.586,1.414-0.586c0,0,0.001,0,0.002,0l8.327,0.007
			c-1.214-1.403-2.552-2.74-4.004-4.001l-4.333-0.003c-1.103-0.001-1.997-0.896-1.998-1.998l-0.002-2.568
			c-1.287-0.769-2.624-1.483-3.999-2.138l0.004,4.695c0,0.531-0.21,1.041-0.586,1.416c-0.375,0.375-0.884,0.586-1.414,0.586
			c-0.001,0-0.001,0-0.002,0l-16.381-0.013c-1.103-0.001-1.997-0.896-1.998-1.998l-0.008-9.716
			c-1.328-0.065-2.591-0.091-3.997-0.052l0.008,9.758c0,0.531-0.21,1.041-0.586,1.416c-0.375,0.375-0.884,0.586-1.414,0.586
			c-0.001,0-0.001,0-0.002,0l-16.38-0.014c-1.103-0.001-1.997-0.896-1.998-1.998l-0.005-5.369c-1.37,0.597-2.706,1.251-3.995,1.958
			l0.002,3.402c0,0.53-0.211,1.04-0.586,1.415s-0.884,0.586-1.414,0.586c-0.001,0-0.001,0-0.002,0l-5.792-0.005
			c-1.449,1.258-2.785,2.594-3.997,3.994l9.8,0.008c1.103,0.001,1.997,0.896,1.998,1.998l0.012,14.723
			c0,0.531-0.21,1.041-0.586,1.416c-0.375,0.375-0.884,0.586-1.414,0.586c-0.001,0-0.001,0-0.002,0l-17.819-0.015
			c-0.045,0.668-0.067,1.335-0.067,1.997c0,0.663,0.024,1.332,0.07,2l17.826,0.015c1.103,0.001,1.997,0.896,1.998,1.998
			l0.012,14.723c0,0.531-0.21,1.041-0.586,1.416c-0.375,0.375-0.884,0.586-1.414,0.586c-0.001,0-0.001,0-0.002,0l-9.788-0.008
			c1.214,1.402,2.553,2.74,4.005,4.001l5.794,0.005c1.104,0.001,1.997,0.896,1.998,1.998l0.003,3.404
			c1.289,0.709,2.626,1.365,3.999,1.964l-0.005-5.358c0-0.531,0.21-1.041,0.586-1.416c0.375-0.375,0.884-0.586,1.414-0.586
			c0.001,0,0.001,0,0.002,0l16.381,0.013c1.103,0.001,1.997,0.896,1.998,1.998L65.309,210.158z M87.672,194.418
			c-0.001,0-0.001,0-0.002,0l-16.381-0.013c-1.103-0.001-1.997-0.896-1.998-1.998l-0.012-14.723c0-0.531,0.21-1.041,0.586-1.416
			c0.375-0.375,0.884-0.586,1.414-0.586c0.001,0,0.001,0,0.002,0l16.381,0.013c1.103,0.001,1.997,0.896,1.998,1.998l0.012,14.723
			c0,0.531-0.21,1.041-0.586,1.416C88.711,194.207,88.202,194.418,87.672,194.418z M73.289,190.407l12.381,0.009l-0.008-10.723
			l-12.381-0.009L73.289,190.407z M63.294,194.398c-0.001,0-0.001,0-0.002,0l-16.38-0.013c-1.103-0.001-1.997-0.896-1.998-1.998
			l-0.012-14.723c0-0.531,0.21-1.041,0.586-1.416c0.375-0.375,0.884-0.586,1.414-0.586c0.001,0,0.001,0,0.002,0l16.38,0.013
			c1.103,0.001,1.997,0.896,1.998,1.998l0.012,14.723c0,0.531-0.21,1.041-0.586,1.416C64.333,194.188,63.824,194.398,63.294,194.398
			z M48.912,190.388l12.38,0.009l-0.008-10.723l-12.38-0.009L48.912,190.388z M87.653,171.698c-0.001,0-0.001,0-0.002,0
			l-16.38-0.014c-1.103-0.001-1.997-0.896-1.998-1.998l-0.012-14.723c0-0.531,0.21-1.041,0.586-1.416
			c0.375-0.375,0.884-0.586,1.414-0.586c0.001,0,0.001,0,0.002,0l16.38,0.013c1.103,0.001,1.997,0.896,1.998,1.998l0.012,14.724
			c0,0.531-0.21,1.041-0.586,1.416C88.692,171.487,88.184,171.698,87.653,171.698z M73.271,167.687l12.38,0.01l-0.008-10.724
			l-12.38-0.009L73.271,167.687z M63.276,171.679c-0.001,0-0.001,0-0.002,0l-16.381-0.014c-1.103-0.001-1.997-0.896-1.998-1.998
			l-0.012-14.723c0-0.531,0.21-1.041,0.586-1.416c0.375-0.375,0.884-0.586,1.414-0.586c0.001,0,0.001,0,0.002,0l16.381,0.014
			c1.103,0.001,1.997,0.896,1.998,1.998l0.012,14.723c0,0.531-0.21,1.041-0.586,1.416C64.315,171.468,63.807,171.679,63.276,171.679
			z M48.894,167.667l12.381,0.01l-0.008-10.723l-12.381-0.01L48.894,167.667z"/>
	</g>
</g>
</svg>
