<?xml version="1.0" encoding="iso-8859-1"?>
<!-- Generator: Adobe Illustrator 19.0.0, SVG Export Plug-In . SVG Version: 6.00 Build 0)  -->
<svg version="1.1" id="Capa_1" xmlns="http://www.w3.org/2000/svg" xmlns:xlink="http://www.w3.org/1999/xlink" x="0px" y="0px"
	 viewBox="0 0 512 512" style="enable-background:new 0 0 512 512;" xml:space="preserve">
<g>
	<g>
		<path d="M362,126.018c-5.52,0-10,4.48-10,10s4.48,10,10,10c5.52,0,10-4.48,10-10S367.52,126.018,362,126.018z"/>
	</g>
</g>
<g>
	<g>
		<path d="M50,216.018c-5.52,0-10,4.48-10,10s4.48,10,10,10s10-4.48,10-10S55.52,216.018,50,216.018z"/>
	</g>
</g>
<g>
	<g>
		<path d="M472,159.443V56.018c0-10.681-4.162-20.725-11.719-28.281C452.723,20.18,442.68,16.018,432,16.018
			c-22.056,0-40,17.944-40,40v4.936c-86.065,62.104-196.293,73.331-202.829,75.064H90c-49.534,0-90,40.074-90,90
			c0,46.63,35.648,85.089,81.122,89.562c5.241,96.309,19.958,149.463,20.064,150.104c8.171,32.812,46.306,38.98,67.553,18.47
			c9.925-9.581,13.613-23.251,10.139-37.541c-1.755-8.368-9.125-35.234-14.514-90.595H190c5.523,0,10-4.478,10-10v-28.195
			c2.689,0.733,109.207,13.514,192,73.259v4.936c0,22.097,17.898,40,40,40c22.056,0,40-17.944,40-40V272.593
			c23.6-8.351,40-30.959,40-56.575C512,190.402,495.6,167.795,472,159.443z M154.849,469.764
			c-9.616,9.279-29.674,9.488-34.257-8.922c-0.155-0.931-14.142-50.544-19.415-144.824h40.07c0.595,10.452,1.327,20.798,2.19,30.867
			c4.03,46.83,9.513,76.646,15.835,103.693l0.135,0.607C161.76,460.633,158.228,466.503,154.849,469.764z M180,336.018h-17.377
			c-0.505-6.587-0.954-13.267-1.345-20H180V336.018z M180,296.018H90c-38.598,0-70-31.401-70-70c0-38.525,31.168-70,70-70h90
			V296.018z M392,366.84c-87.383-57.155-187.188-68.031-192-69.294V154.49c5.049-1.325,104.58-12.115,192-69.292V366.84z
			 M452,396.018c0,11.028-8.972,20-20,20c-11.043,0-20-8.952-20-20v-340c0-11.028,8.972-20,20-20c5.338,0,10.359,2.082,14.139,5.861
			c3.779,3.779,5.861,8.8,5.861,14.139C452,170.755,452,364.058,452,396.018z M472,250.656V181.38c12.068,7.001,20,20.089,20,34.638
			S484.068,243.654,472,250.656z"/>
	</g>
</g>
<g>
	<g>
		<path d="M335.747,150.631c-2.093-5.111-7.934-7.561-13.043-5.467c-25.951,10.617-64.199,18.804-94.622,24.75
			c-5.42,1.06-8.956,6.313-7.896,11.732c0.933,4.773,5.117,8.084,9.804,8.084c0.636,0,1.281-0.062,1.929-0.188
			c31.318-6.121,70.8-14.593,98.359-25.869C335.39,161.582,337.838,155.743,335.747,150.631z"/>
	</g>
</g>
<g>
	<g>
		<path d="M150,176.018H90c-5.523,0-10,4.478-10,10c0,5.522,4.477,10,10,10h60c5.523,0,10-4.478,10-10
			C160,180.496,155.523,176.018,150,176.018z"/>
	</g>
</g>
<g>
	<g>
		<path d="M150,216.018H90c-5.523,0-10,4.478-10,10c0,5.522,4.477,10,10,10h60c5.523,0,10-4.478,10-10
			C160,220.496,155.523,216.018,150,216.018z"/>
	</g>
</g>
<g>
	<g>
		<path d="M150,256.018H90c-5.523,0-10,4.478-10,10c0,5.522,4.477,10,10,10h60c5.523,0,10-4.478,10-10
			C160,260.496,155.523,256.018,150,256.018z"/>
	</g>
</g>
<g>
</g>
<g>
</g>
<g>
</g>
<g>
</g>
<g>
</g>
<g>
</g>
<g>
</g>
<g>
</g>
<g>
</g>
<g>
</g>
<g>
</g>
<g>
</g>
<g>
</g>
<g>
</g>
<g>
</g>
</svg>
