<?xml version="1.0" encoding="utf-8"?>
<!-- Generator: Adobe Illustrator 23.0.3, SVG Export Plug-In . SVG Version: 6.00 Build 0)  -->
<svg version="1.1" id="Layer_1" xmlns="http://www.w3.org/2000/svg" xmlns:xlink="http://www.w3.org/1999/xlink" x="0px" y="0px"
	 viewBox="0 0 148 148" style="enable-background:new 0 0 148 148;" xml:space="preserve">
<style type="text/css">
	.st0{fill:url(#SVGID_1_);}
	.st1{fill:url(#SVGID_2_);}
	.st2{fill:url(#SVGID_3_);}
	.st3{fill:url(#SVGID_4_);}
	.st4{fill:url(#SVGID_5_);}
	.st5{fill:url(#SVGID_6_);}
	.st6{fill:url(#SVGID_7_);}
	.st7{fill:url(#SVGID_8_);}
	.st8{fill:url(#SVGID_9_);}
	.st9{fill:url(#SVGID_10_);}
	.st10{fill:url(#SVGID_11_);}
	.st11{fill:url(#SVGID_12_);}
	.st12{fill:url(#SVGID_13_);}
	.st13{fill:url(#SVGID_14_);}
	.st14{fill:url(#SVGID_15_);}
	.st15{fill:url(#SVGID_16_);}
	.st16{fill:url(#SVGID_17_);}
	.st17{fill:url(#SVGID_18_);}
	.st18{fill:url(#SVGID_19_);}
	.st19{fill:url(#SVGID_20_);}
	.st20{fill:#010101;}
	.st21{fill:url(#SVGID_21_);}
	.st22{fill:url(#SVGID_22_);}
	.st23{fill:url(#SVGID_23_);}
	.st24{fill:url(#SVGID_24_);}
	.st25{fill:url(#SVGID_25_);}
	.st26{fill:url(#SVGID_26_);}
	.st27{fill:#FF462E;}
	.st28{fill:url(#SVGID_27_);}
	.st29{fill:url(#SVGID_28_);}
	.st30{fill:url(#SVGID_29_);}
	.st31{fill:url(#SVGID_30_);}
	.st32{fill:url(#SVGID_31_);}
	.st33{fill:url(#SVGID_32_);}
	.st34{fill:url(#SVGID_33_);}
	.st35{fill:url(#SVGID_34_);}
	.st36{fill:url(#SVGID_35_);}
	.st37{fill:url(#SVGID_36_);}
	.st38{fill:url(#SVGID_37_);}
	.st39{fill:url(#SVGID_38_);}
	.st40{fill:url(#SVGID_39_);}
	.st41{fill:#EFEFEF;}
	.st42{fill:#FFB70D;}
	.st43{fill:#FF3100;}
	.st44{fill:#FFCC01;}
	.st45{fill:#FF3600;}
	.st46{fill:#DF2A00;}
	.st47{fill:#FC3100;}
	.st48{fill:#DF2901;}
	.st49{fill:url(#SVGID_40_);}
	.st50{fill:url(#SVGID_41_);}
	.st51{fill:url(#SVGID_42_);}
	.st52{fill:url(#SVGID_43_);}
	.st53{fill:url(#SVGID_44_);}
	.st54{fill:url(#SVGID_45_);}
	.st55{fill:url(#SVGID_46_);}
	.st56{fill:url(#SVGID_47_);}
	.st57{fill:#F46F24;}
	.st58{fill:#EF2F3E;}
	.st59{fill:#28A54A;}
	.st60{fill:#27B0C3;}
	.st61{fill:#494C55;}
	.st62{fill:#71BD43;}
	.st63{fill:#F05924;}
	.st64{fill:url(#SVGID_48_);}
	.st65{fill:#F24C8A;}
	.st66{fill:#D9D9D9;}
	.st67{fill:#7DD2F0;}
	.st68{fill:#EEE25C;}
	.st69{fill:#464655;}
	.st70{fill:#61B9D9;}
	.st71{fill:#FF6B58;}
	.st72{fill:#FFCE6E;}
	.st73{fill:#F4432C;}
	.st74{fill:#6B6B82;}
	.st75{fill:#B9E578;}
</style>
<linearGradient id="SVGID_1_" gradientUnits="userSpaceOnUse" x1="36.4832" y1="30.2175" x2="118.6955" y2="128.1943">
	<stop  offset="0" style="stop-color:#FF7F18"/>
	<stop  offset="0.116" style="stop-color:#FF612D"/>
	<stop  offset="0.3498" style="stop-color:#FF2955"/>
	<stop  offset="0.4627" style="stop-color:#FF1364"/>
	<stop  offset="1" style="stop-color:#580DBF"/>
</linearGradient>
<path class="st0" d="M78,15.2C42.7,15,13.7,43.7,13.6,79.1c-0.1,35.1,28.4,63.9,63.6,64.1c35.3,0.3,64.3-28.5,64.4-63.8
	C141.7,44.2,113.2,15.5,78,15.2z M77.6,134.9c-30.5,0-55.6-25.1-55.7-55.6c-0.1-30.4,24.9-55.5,55.5-55.8
	c30.5-0.2,56.1,25.3,55.9,55.8C133.1,109.9,108,134.9,77.6,134.9z M85.6,39.3c-0.6-3.3-3.3-3.8-6.3-2.4
	c-9.8,4.5-13.5,12.7-13.8,23.3c-4.7-3.6-7.9-0.3-11,2.4c-10.9,9.8-13.1,26.8-5.4,39.7c7.6,12.8,24.3,18.9,38.6,14.2
	c23.8-7.9,30.6-35.8,13.2-53.9C94.5,55.8,87.5,49.3,85.6,39.3z M99.3,97.2c-5.5,9.5-16.1,14.1-27.4,11.9
	c-9.3-1.9-17.5-10.5-18.8-20.3c-1-7.5,1.4-14.1,6.8-20.1c2.5,2.8,4.9,5.1,8.3,6.1c5.5,1.6,8.2-0.5,7.2-6.2
	c-0.8-4.3-1.5-8.5-0.9-12.9c0.4-3.2,1.6-6,4.4-8.7c3.9,9,10.6,15.3,16.8,22.2C103.4,77.7,104.5,88.2,99.3,97.2z"/>
</svg>
